# xmcd CD database file
#
# Track frame offsets:
#	150
#	15625
#	33177
#	49167
#	63340
#	78455
#	93517
#	110227
#	124097
#	141987
#	160347
#	180305
#
# Disc length: 2696 seconds
#
# Revision: 2
# Processed by: cddbd v1.5PL3 Copyright (c) Steve Scherf et al.
# Submitted via: CDex 1.50
#
DISCID=9e0a860c
DTITLE=Raindogs - Lost Souls
DYEAR=1989
DGENRE=Indie
TTITLE0=I'm Not Scared
TTITLE1=May Your Heart Keep Beating
TTITLE2=Phantom Flame
TTITLE3=The Higher Road
TTITLE4=Too Many Stars
TTITLE5=Nobody's Getting Out
TTITLE6=Cry for Mercy
TTITLE7=Adventure
TTITLE8=This is the Place
TTITLE9=Under the Rainbow
TTITLE10=I Believe
TTITLE11=Something Wouldn't Be the Same
EXTD=Atco records 91279-2.\nCopyright 1990.\n YEAR: 1989
EXTT0=
EXTT1=
EXTT2=
EXTT3=
EXTT4=
EXTT5=
EXTT6=
EXTT7=
EXTT8=
EXTT9=
EXTT10=
EXTT11=
PLAYORDER=
